<?xml version="1.0" standalone="no"?>
<!DOCTYPE svg PUBLIC "-//W3C//DTD SVG 20010904//EN"
 "http://www.w3.org/TR/2001/REC-SVG-20010904/DTD/svg10.dtd">
<svg version="1.0" xmlns="http://www.w3.org/2000/svg"
 width="247.000000pt" height="247.000000pt" viewBox="0 0 247.000000 247.000000"
 preserveAspectRatio="xMidYMid meet">
<metadata>
Created by potrace 1.14, written by Peter Selinger 2001-2017
</metadata>
<g transform="translate(0.000000,247.000000) scale(0.100000,-0.100000)"
fill="#000000" stroke="none">
<path d="M856 2353 c-3 -3 -24 -6 -47 -5 -110 5 -208 -107 -209 -238 0 -30 -4
-60 -8 -65 -4 -7 -72 -11 -184 -10 -98 0 -192 -4 -209 -8 -17 -4 -54 -31 -84
-60 -83 -81 -84 -88 -87 -557 l-3 -395 32 -45 c38 -55 99 -120 112 -120 6 0
13 5 16 10 4 6 8 226 9 490 2 434 4 481 19 498 16 18 43 19 520 21 276 1 508
2 515 2 42 -2 90 -1 112 2 14 1 42 0 63 -4 20 -3 40 -2 43 3 3 5 13 7 22 4 17
-5 59 -7 137 -5 52 1 95 -16 96 -38 0 -10 2 -43 2 -73 l2 -55 -623 -2 c-613
-2 -623 -2 -667 -23 -46 -22 -104 -95 -106 -134 -6 -113 -9 -353 -6 -476 2
-47 -1 -91 -6 -97 -5 -7 -6 -13 -1 -13 8 0 11 -97 4 -125 -1 -5 -1 -12 0 -15
5 -14 4 -70 -1 -70 -4 0 -3 -18 2 -41 5 -22 7 -44 4 -50 -4 -5 -1 -9 4 -9 6 0
11 -6 11 -14 0 -17 74 -96 89 -96 6 0 11 -5 11 -12 0 -6 3 -9 6 -5 4 3 19 0
33 -8 22 -11 110 -14 457 -14 236 0 439 -1 450 -1 21 0 22 -4 22 -142 -1 -198
20 -248 104 -248 37 0 131 52 187 105 20 18 52 48 73 67 20 18 80 74 134 123
53 50 113 104 133 122 78 68 129 123 136 144 4 13 7 110 7 216 -1 143 2 193
11 193 20 0 235 212 246 243 7 19 10 169 8 445 -2 458 -1 445 -66 515 -58 64
-30 61 -666 64 -319 2 -587 3 -595 3 -115 -1 -244 1 -250 5 -4 2 -10 2 -14 -2z
m84 -162 c19 -1 52 0 73 2 21 1 40 0 43 -4 2 -4 17 -4 32 0 15 4 38 6 52 4 39
-5 42 -5 90 -4 25 1 52 1 60 0 8 -1 29 0 45 1 17 1 53 1 80 1 28 0 59 0 70 0
11 0 190 -1 397 -2 269 -1 382 -4 393 -13 14 -10 16 -56 15 -406 l0 -395 -50
-50 c-28 -28 -51 -59 -52 -70 -1 -11 -4 23 -7 75 -3 52 -3 105 1 116 4 12 4
25 1 28 -4 3 -8 20 -10 37 -5 52 -73 138 -134 169 -37 19 -72 28 -121 29 l-28
1 0 86 c0 101 -15 140 -70 184 -74 59 -75 59 -582 56 -254 -1 -469 0 -475 2
-18 6 -16 93 2 120 18 24 60 38 108 35 18 -1 48 -2 67 -2z m1037 -654 c11 -4
24 -15 28 -25 5 -9 9 -189 10 -399 l2 -382 -51 -48 c-28 -27 -80 -76 -116
-109 -36 -32 -109 -99 -162 -147 -53 -49 -100 -88 -104 -88 -5 1 -10 71 -11
158 -2 86 -6 159 -9 162 -3 3 -239 6 -523 6 -490 0 -519 1 -536 19 -17 16 -19
36 -18 200 3 509 5 613 11 622 18 28 64 31 527 33 263 1 480 3 481 4 6 6 452
0 471 -6z"/>
<path d="M1283 1352 c-11 -7 -133 -412 -133 -443 0 -20 57 -46 71 -32 13 13
137 435 131 451 -2 6 -12 12 -21 12 -9 0 -21 4 -27 10 -5 5 -14 6 -21 2z"/>
<path d="M945 1233 c-49 -59 -88 -112 -88 -118 0 -16 174 -235 187 -235 6 0
26 14 44 31 l32 30 -22 28 c-13 16 -45 54 -72 85 l-49 56 72 79 71 80 -31 35
c-17 20 -37 36 -44 36 -7 0 -52 -48 -100 -107z"/>
<path d="M1423 1314 c-18 -14 -33 -31 -33 -37 0 -7 27 -43 60 -82 33 -38 60
-72 60 -75 0 -6 -15 -25 -87 -116 -24 -29 -43 -55 -43 -58 0 -9 62 -66 72 -66
10 0 29 21 132 145 37 44 65 85 64 92 -4 16 -176 223 -186 223 -4 0 -22 -12
-39 -26z"/>
</g>
</svg>
